# xmcd
#
# Track frame offsets:
#  150
#  2367
#  21861
#  39343
#  58271
#  79660
#  97788
#  118515
#  135893
#  175970
#  177209
#  193911
#  210673
#  227444
#  248435
#  259073
#  275036
#  288967
#  308091
#
# Disc length: 4332 seconds
#
# Revision: 0
# Processed by: cddbd v1.4PL0 Copyright (c) Steve Scherf et al.
# Submitted via: AltoMP3_Maker 3.0
#
DISCID=f110ea13
DTITLE=Houston Marchman - Houston Marchman and the Contraband LIVE!
DYEAR=1900
DGENRE=
TTITLE0=Intro 1
TTITLE1=Damn This Road
TTITLE2=Worry Me
TTITLE3=Caleb
TTITLE4=Hank's Angel
TTITLE5=When You Ain't Lookin'
TTITLE6=Wheels
TTITLE7=Adios Baby
TTITLE8=Viet Nashville
TTITLE9=Intro 2
TTITLE10=South Texas Rain
TTITLE11=Wichita Falls
TTITLE12=Buses In The Rain
TTITLE13=Leavin' Dallas
TTITLE14=Bill Longley (Intro)
TTITLE15=Bill Longley
TTITLE16=Plano Texas Girl
TTITLE17=Del Rio
TTITLE18=Fort Worth
EXTD=
EXTT0=
EXTT1=
EXTT2=
EXTT3=
EXTT4=
EXTT5=
EXTT6=
EXTT7=
EXTT8=
EXTT9=
EXTT10=
EXTT11=
EXTT12=
EXTT13=
EXTT14=
EXTT15=
EXTT16=
EXTT17=
EXTT18=
PLAYORDER=
